<?xml version="1.0" encoding="utf-8"?>
<!-- Generator: Adobe Illustrator 15.1.0, SVG Export Plug-In . SVG Version: 6.00 Build 0)  -->
<!DOCTYPE svg PUBLIC "-//W3C//DTD SVG 1.1//EN" "http://www.w3.org/Graphics/SVG/1.1/DTD/svg11.dtd">
<svg version="1.1" id="Layer_1" xmlns="http://www.w3.org/2000/svg" xmlns:xlink="http://www.w3.org/1999/xlink" x="0px" y="0px"
	 width="1455.88px" height="139.2px" viewBox="0 0 1455.88 139.2" enable-background="new 0 0 1455.88 139.2" xml:space="preserve">
<path fill-rule="evenodd" clip-rule="evenodd" fill="#43E1BD" d="M59.06,68.17c-4.32,4.73-10.81,7.09-19.45,7.09H20.88V24.01h18.73
	c8.64,0,15.13,2.54,19.45,7.27C63.92,36.73,65,44.37,65,49.64C65,55.09,63.92,62.72,59.06,68.17z M0,5.29v133.85h20.88v-45h18.73
	c17.65,0,27.8-7.19,32.96-13.31c6.87-7.75,10.31-18.65,10.31-31.19s-3.44-23.27-10.31-31.21C67.41,12.49,57.26,5.29,39.61,5.29
	H17.64H0z"/>
<path fill-rule="evenodd" clip-rule="evenodd" fill="#43E1BD" d="M133.86,92.34l16.17-40.68l16.17,40.68H133.86z M185.06,139.14
	h22.82L150.03,0L92,139.14h23l11.32-28.08h47.43L185.06,139.14z"/>
<path fill-rule="evenodd" clip-rule="evenodd" fill="#43E1BD" d="M246.88,75.34V24.09h18.81c8.68,0,15.19,2.36,19.35,7.09
	c5.06,5.45,5.96,13.08,5.96,18.53c0,5.27-0.9,12.91-5.96,18.36c-4.16,4.73-10.67,7.27-19.35,7.27H246.88z M283.59,91
	c7.23-2.52,12.01-6.66,15.07-10.26c6.64-7.76,10.22-18.67,10.22-31.03c0-12.54-3.58-23.44-10.22-31.2
	c-5.1-6.11-15.25-13.3-32.97-13.3h-22.05H226v133.93h20.88V94.06h15.37l33.52,45.08h22.83L283.59,91z"/>
<path fill-rule="evenodd" clip-rule="evenodd" fill="#43E1BD" d="M411.02,94.03c-1.98-6.35-5.94-12.33-11.7-17.59
	c-2.88-2.71-6.84-6.52-10.08-9.78l-22.32-21.58c-5.57-5.44-5.75-9.61-5.04-12.14c1.08-3.81,5.04-6.89,9.72-7.8
	c3.78-0.71,10.8-0.71,17.64,7.61l16.38-13.1c-5.22-6.19-11.34-10.61-18.18-13.27c-6.48-2.3-13.32-2.84-19.8-1.41
	c-5.94,1.06-11.42,3.71-15.85,7.43c-4.77,4.07-8.13,9.02-9.73,14.73c-1.6,5.44-1.42,11.43,0.36,17.05
	c1.77,5.8,5.13,11.24,10.08,16.13l16.22,15.59c0.72,0.73,10.44,10.33,16.38,15.95c3.78,3.63,7.92,9.07,6.12,15.23
	c-1.62,5.44-7.2,9.97-14.04,11.24c-3.96,0.88-8.28,0.53-12.24-1.08c-4.83-1.82-9.25-5.44-12.97-10.52l-16.37,13.01
	c6.29,7.89,13.54,13.33,21.86,16.66c4.96,1.93,10.36,2.81,15.76,2.81c2.7,0,5.4-0.18,8.1-0.7c14.58-2.81,26.28-12.81,30.06-25.62
	C413.18,106.72,413,100.19,411.02,94.03z"/>
<polygon fill-rule="evenodd" clip-rule="evenodd" fill="#43E1BD" points="512.68,120.31 456.88,120.31 456.88,5.26 436,5.26 
	436,139.19 456.7,139.19 512.68,139.19 "/>
<polygon fill-rule="evenodd" clip-rule="evenodd" fill="#43E1BD" points="548.88,24.01 608.1,24.01 608.1,5.29 548.7,5.29 528,5.29 
	528,139.19 548.7,139.19 608.1,139.19 608.1,120.31 548.88,120.31 548.88,79.14 597.66,79.14 597.66,60.26 548.88,60.26 "/>
<polygon fill-rule="evenodd" clip-rule="evenodd" fill="#43E1BD" points="738.68,5.26 714.56,5.26 681.44,51.09 648.32,5.26 
	624.02,5.26 671,69.13 671,139.14 691.88,139.14 691.88,69.13 "/>
<polygon fill-rule="evenodd" clip-rule="evenodd" fill="#43E1BD" points="905.88,5.26 885,5.26 885,62.26 831.88,62.26 831.88,5.26 
	811,5.26 811,139.14 831.88,139.14 831.88,81.14 885,81.14 885,139.14 905.88,139.14 "/>
<polygon fill-rule="evenodd" clip-rule="evenodd" fill="#43E1BD" points="954.88,24.01 1014.1,24.01 1014.1,5.29 954.7,5.29 
	934,5.29 934,139.19 954.7,139.19 1014.1,139.19 1014.1,120.31 954.88,120.31 954.88,79.14 1003.66,79.14 1003.66,60.26 
	954.88,60.26 "/>
<path fill-rule="evenodd" clip-rule="evenodd" fill="#43E1BD" d="M1071.86,92.34l16.17-40.68l16.17,40.68H1071.86z M1123.06,139.14
	h22.82L1088.03,0L1030,139.14h23l11.32-28.08h47.43L1123.06,139.14z"/>
<polygon fill-rule="evenodd" clip-rule="evenodd" fill="#43E1BD" points="1240.68,120.31 1184.88,120.31 1184.88,5.26 1164,5.26 
	1164,139.19 1184.7,139.19 1240.68,139.19 "/>
<polygon fill-rule="evenodd" clip-rule="evenodd" fill="#43E1BD" points="1341.6,5.29 1247.28,5.29 1247.28,24.01 1284,24.01 
	1284,139.14 1304.88,139.14 1304.88,24.01 1341.6,24.01 "/>
<polygon fill-rule="evenodd" clip-rule="evenodd" fill="#43E1BD" points="1455.88,5.26 1435,5.26 1435,62.26 1381.88,62.26 
	1381.88,5.26 1361,5.26 1361,139.14 1381.88,139.14 1381.88,81.14 1435,81.14 1435,139.14 1455.88,139.14 "/>
</svg>
